<svg width="41" height="40" viewBox="0 0 41 40" fill="none" xmlns="http://www.w3.org/2000/svg">
<g clip-path="url(#clip0_69306_1811)">
<path d="M38.7392 16.5223L22.4236 16.5215C21.7031 16.5215 21.1191 17.1054 21.1191 17.8259V23.038C21.1191 23.7583 21.7031 24.3423 22.4235 24.3423H31.6115C30.6054 26.9534 28.7276 29.14 26.3318 30.5294L30.2495 37.3113C36.5341 33.6767 40.2495 27.2995 40.2495 20.1605C40.2495 19.1441 40.1746 18.4174 40.0248 17.5992C39.9109 16.9776 39.3712 16.5223 38.7392 16.5223Z" fill="#167EE6"/>
<path d="M20.2491 32.1741C15.7527 32.1741 11.8274 29.7174 9.71922 26.082L2.9375 29.9909C6.38867 35.9723 12.8538 40.0002 20.2491 40.0002C23.877 40.0002 27.3002 39.0234 30.2491 37.3212V37.3119L26.3314 30.5298C24.5394 31.5692 22.4656 32.1741 20.2491 32.1741Z" fill="#12B347"/>
<path d="M30.25 37.3206V37.3113L26.3323 30.5293C24.5402 31.5686 22.4666 32.1736 20.25 32.1736V39.9997C23.8779 39.9997 27.3012 39.0229 30.25 37.3206Z" fill="#0F993E"/>
<path d="M8.07609 20.0005C8.07609 17.7841 8.68093 15.7106 9.72008 13.9187L2.93836 10.0098C1.22672 12.9494 0.25 16.3633 0.25 20.0005C0.25 23.6377 1.22672 27.0516 2.93836 29.9912L9.72008 26.0823C8.68093 24.2903 8.07609 22.2168 8.07609 20.0005Z" fill="#FFD500"/>
<path d="M20.2491 7.82609C23.1812 7.82609 25.8745 8.86797 27.9782 10.601C28.4972 11.0285 29.2515 10.9977 29.7269 10.5223L33.4198 6.8293C33.9592 6.28992 33.9208 5.40703 33.3446 4.90719C29.82 1.84945 25.2341 0 20.2491 0C12.8538 0 6.38867 4.02789 2.9375 10.0093L9.71922 13.9182C11.8274 10.2828 15.7527 7.82609 20.2491 7.82609Z" fill="#FF4B26"/>
<path d="M27.9791 10.601C28.498 11.0285 29.2524 10.9977 29.7277 10.5223L33.4207 6.8293C33.96 6.28992 33.9216 5.40703 33.3455 4.90719C29.8209 1.84938 25.2349 0 20.25 0V7.82609C23.182 7.82609 25.8754 8.86797 27.9791 10.601Z" fill="#D93F21"/>
</g>
<defs>
<clipPath id="clip0_69306_1811">
<rect width="40" height="40" fill="white" transform="translate(0.25)"/>
</clipPath>
</defs>
</svg>
