<svg width="84" height="18" viewBox="0 0 84 18" fill="none" xmlns="http://www.w3.org/2000/svg">
<path d="M7.79078 2.93921C8.04024 2.17145 9.12642 2.17145 9.37588 2.93921L10.2672 5.68237C10.3787 6.02572 10.6987 6.25819 11.0597 6.25819H13.9441C14.7513 6.25819 15.087 7.2912 14.4339 7.76571L12.1004 9.46107C11.8083 9.67328 11.6861 10.0494 11.7977 10.3928L12.689 13.1359C12.9385 13.9037 12.0597 14.5421 11.4066 14.0676L9.07315 12.3723C8.78108 12.1601 8.38558 12.1601 8.09351 12.3723L5.76004 14.0676C5.10694 14.5421 4.22821 13.9037 4.47767 13.1359L5.36898 10.3928C5.48054 10.0494 5.35832 9.67328 5.06625 9.46107L2.73278 7.76571C2.07968 7.2912 2.41533 6.25819 3.2226 6.25819H6.10693C6.46795 6.25819 6.78791 6.02573 6.89948 5.68237L7.79078 2.93921Z" fill="#FCB547"/>
<path d="M24.4568 2.93921C24.7063 2.17145 25.7924 2.17145 26.0419 2.93921L26.9332 5.68237C27.0448 6.02572 27.3647 6.25819 27.7257 6.25819H30.6101C31.4174 6.25819 31.753 7.2912 31.0999 7.76571L28.7664 9.46107C28.4744 9.67328 28.3521 10.0494 28.4637 10.3928L29.355 13.1359C29.6045 13.9037 28.7257 14.5421 28.0726 14.0676L25.7392 12.3723C25.4471 12.1601 25.0516 12.1601 24.7595 12.3723L22.4261 14.0676C21.773 14.5421 20.8942 13.9037 21.1437 13.1359L22.035 10.3928C22.1466 10.0494 22.0243 9.67328 21.7323 9.46107L19.3988 7.76571C18.7457 7.2912 19.0813 6.25819 19.8886 6.25819H22.7729C23.134 6.25819 23.4539 6.02573 23.5655 5.68237L24.4568 2.93921Z" fill="#FCB547"/>
<path d="M41.1248 2.93921C41.3742 2.17145 42.4604 2.17145 42.7099 2.93921L43.6012 5.68237C43.7127 6.02572 44.0327 6.25819 44.3937 6.25819H47.278C48.0853 6.25819 48.421 7.2912 47.7679 7.76571L45.4344 9.46107C45.1423 9.67328 45.0201 10.0494 45.1317 10.3928L46.023 13.1359C46.2724 13.9037 45.3937 14.5421 44.7406 14.0676L42.4071 12.3723C42.1151 12.1601 41.7196 12.1601 41.4275 12.3723L39.094 14.0676C38.4409 14.5421 37.5622 13.9037 37.8117 13.1359L38.703 10.3928C38.8145 10.0494 38.6923 9.67328 38.4002 9.46107L36.0668 7.76571C35.4137 7.2912 35.7493 6.25819 36.5566 6.25819H39.4409C39.8019 6.25819 40.1219 6.02573 40.2335 5.68237L41.1248 2.93921Z" fill="#FCB547"/>
<path d="M57.7908 2.93921C58.0402 2.17145 59.1264 2.17145 59.3759 2.93921L60.2672 5.68237C60.3787 6.02572 60.6987 6.25819 61.0597 6.25819H63.9441C64.7513 6.25819 65.087 7.2912 64.4339 7.76571L62.1004 9.46107C61.8083 9.67328 61.6861 10.0494 61.7977 10.3928L62.689 13.1359C62.9385 13.9037 62.0597 14.5421 61.4066 14.0676L59.0732 12.3723C58.7811 12.1601 58.3856 12.1601 58.0935 12.3723L55.76 14.0676C55.1069 14.5421 54.2282 13.9037 54.4777 13.1359L55.369 10.3928C55.4805 10.0494 55.3583 9.67328 55.0663 9.46107L52.7328 7.76571C52.0797 7.2912 52.4153 6.25819 53.2226 6.25819H56.1069C56.468 6.25819 56.7879 6.02573 56.8995 5.68237L57.7908 2.93921Z" fill="#FCB547"/>
<path d="M74.4568 2.93921C74.7063 2.17145 75.7924 2.17145 76.0419 2.93921L76.9332 5.68237C77.0448 6.02572 77.3647 6.25819 77.7257 6.25819H80.6101C81.4174 6.25819 81.753 7.2912 81.0999 7.76571L78.7664 9.46107C78.4744 9.67328 78.3521 10.0494 78.4637 10.3928L79.355 13.1359C79.6045 13.9037 78.7257 14.5421 78.0726 14.0676L75.7392 12.3723C75.4471 12.1601 75.0516 12.1601 74.7595 12.3723L72.4261 14.0676C71.773 14.5421 70.8942 13.9037 71.1437 13.1359L72.035 10.3928C72.1466 10.0494 72.0243 9.67328 71.7323 9.46107L69.3988 7.76571C68.7457 7.2912 69.0813 6.25819 69.8886 6.25819H72.7729C73.134 6.25819 73.4539 6.02573 73.5655 5.68237L74.4568 2.93921Z" fill="#FCB547"/>
</svg>
